<?xml version="1.0" encoding="utf-8"?>
<!-- Uploaded to: SVG Repo, www.svgrepo.com, Generator: SVG Repo Mixer Tools -->
<svg fill="#000000" width="800px" height="800px" viewBox="0 0 32 32" version="1.1" xmlns="http://www.w3.org/2000/svg">
<title>building</title>
<path d="M24 1.25h-16c-0.414 0-0.75 0.336-0.75 0.75v0 28c0 0.414 0.336 0.75 0.75 0.75h16c0.414-0 0.75-0.336 0.75-0.75v0-28c-0-0.414-0.336-0.75-0.75-0.75v0zM18.25 29.25h-4.5v-5.5h4.5zM23.25 29.25h-3.5v-6.25c-0-0.414-0.336-0.75-0.75-0.75h-6c-0.414 0-0.75 0.336-0.75 0.75v0 6.25h-3.5v-26.5h14.5zM11 8.75h3c0.414-0 0.75-0.336 0.75-0.75v0-3c-0-0.414-0.336-0.75-0.75-0.75h-3c-0.414 0-0.75 0.336-0.75 0.75v0 3c0 0.414 0.336 0.75 0.75 0.75v0zM11.75 5.75h1.5v1.5h-1.5zM18 8.75h3c0.414-0 0.75-0.336 0.75-0.75v0-3c-0-0.414-0.336-0.75-0.75-0.75h-3c-0.414 0-0.75 0.336-0.75 0.75v0 3c0 0.414 0.336 0.75 0.75 0.75v0zM18.75 5.75h1.5v1.5h-1.5zM11 14.75h3c0.414-0 0.75-0.336 0.75-0.75v0-3c-0-0.414-0.336-0.75-0.75-0.75h-3c-0.414 0-0.75 0.336-0.75 0.75v0 3c0 0.414 0.336 0.75 0.75 0.75v0zM11.75 11.75h1.5v1.5h-1.5zM18 14.75h3c0.414-0 0.75-0.336 0.75-0.75v0-3c-0-0.414-0.336-0.75-0.75-0.75h-3c-0.414 0-0.75 0.336-0.75 0.75v0 3c0 0.414 0.336 0.75 0.75 0.75v0zM18.75 11.75h1.5v1.5h-1.5zM11 20.75h3c0.414-0 0.75-0.336 0.75-0.75v0-3c-0-0.414-0.336-0.75-0.75-0.75h-3c-0.414 0-0.75 0.336-0.75 0.75v0 3c0 0.414 0.336 0.75 0.75 0.75v0zM11.75 17.75h1.5v1.5h-1.5zM18 20.75h3c0.414-0 0.75-0.336 0.75-0.75v0-3c-0-0.414-0.336-0.75-0.75-0.75h-3c-0.414 0-0.75 0.336-0.75 0.75v0 3c0 0.414 0.336 0.75 0.75 0.75v0zM18.75 17.75h1.5v1.5h-1.5z"></path>
</svg>