<?xml version="1.0" encoding="iso-8859-1"?>
<!-- Uploaded to: SVG Repo, www.svgrepo.com, Generator: SVG Repo Mixer Tools -->
<!DOCTYPE svg PUBLIC "-//W3C//DTD SVG 1.1//EN" "http://www.w3.org/Graphics/SVG/1.1/DTD/svg11.dtd">
<svg fill="#000000" version="1.1" id="Capa_1" xmlns="http://www.w3.org/2000/svg" xmlns:xlink="http://www.w3.org/1999/xlink" 
	 width="800px" height="800px" viewBox="0 0 438.474 438.474"
	 xml:space="preserve">
<g>
	<g>
		<rect x="279.199" y="295.5" width="13.406" height="80.19"/>
		<path d="M102.471,96.333L129.306,74.4V51.733h-26.835V96.333z"/>
		<path d="M429.929,159.236l-49.827-37.155c-1.905-2.289-4.326-4.102-7.076-5.273L221.36,3.725
			c-0.425-0.323-0.861-0.601-1.318-0.866c-0.537-0.336-1.067-0.654-1.574-0.897c-0.504-0.252-1.015-0.467-1.606-0.688
			c-0.599-0.231-1.195-0.446-1.893-0.638c-0.506-0.128-0.995-0.233-1.821-0.378c-0.578-0.102-1.158-0.176-1.662-0.215
			C211.108,0.017,210.727,0,210.352,0l-0.651,0.005c-0.641,0.011-1.271,0.042-1.953,0.123c-0.499,0.066-0.992,0.158-1.452,0.258
			c-0.672,0.142-1.344,0.296-1.992,0.512c-0.491,0.154-0.969,0.344-1.775,0.693c-0.527,0.225-1.044,0.467-1.671,0.811
			c-0.473,0.271-0.935,0.578-1.163,0.748l-0.945,0.596l-43.153,35.273c-2.076-8.131-9.462-14.168-18.233-14.168H94.403
			c-10.373,0-18.814,8.438-18.814,18.813v60.747L7.893,159.753c-3.893,3.181-6.312,7.685-6.816,12.685
			c-0.506,4.998,0.974,9.896,4.145,13.778c3.585,4.396,8.895,6.918,14.577,6.918c4.329,0,8.552-1.512,11.9-4.247l18.691-15.273
			v161.729c0,10.374,8.441,18.814,18.813,18.814c10.376,0,18.814-8.44,18.814-18.814v-192.48l43.74-35.748v99.844
			c0,19.124,12.787,36.059,34.455,45.932v21.108h-4.392c-11.244,0-20.388,9.146-20.388,20.389v14.205
			c0,1.438,0.152,2.856,0.462,4.251c-0.318,1.413-0.467,2.846-0.462,4.279l-0.005,14.21c0,1.438,0.157,2.867,0.467,4.272
			c-0.31,1.387-0.462,2.81-0.462,4.243l-0.005,14.226c0,1.437,0.149,2.865,0.462,4.262c-0.312,1.397-0.462,2.825-0.462,4.262v14.216
			c0,11.234,9.144,20.389,20.389,20.389h4.396v1.396c0,21.985,17.879,39.876,39.854,39.876h0.023
			c21.984,0,39.874-17.891,39.874-39.876v-1.396h15.764c2.872,0,5.653-0.587,8.195-1.71c2.53,1.112,5.301,1.71,8.179,1.71h15.648
			c11.234,0,20.362-9.144,20.362-20.389v-82.426c0-11.243-9.139-20.389-20.378-20.389h-11.621v-2.426
			c0-0.356-0.013-0.714-0.028-1.08c0.194-6.168-2.451-12.169-7.207-16.21l-12.725-10.741c12.325-9.785,19.155-22.583,19.155-36.583
			V104.488c0-8.893-7.233-16.126-16.127-16.126H154.7L210.62,42.66l136.19,101.542v191.151c0,10.374,8.442,18.814,18.814,18.814
			c10.377,0,18.814-8.44,18.814-18.814V172.25l23.007,17.152c3.276,2.441,7.161,3.727,11.234,3.727
			c5.926,0,11.559-2.834,15.093-7.57C439.972,177.249,438.25,165.438,429.929,159.236z M265.176,99.112
			c2.973,0,5.375,2.409,5.375,5.375v102.471c0,14.283-9.884,27.177-26.571,35.303l23.964,20.235c2.371,2.016,3.61,5.046,3.369,8.105
			c0.032,0.321,0.048,0.641,0.048,0.96V287.5c1.738-1.701,4.109-2.761,6.725-2.761l15.644,0.011c5.316,0,9.632,4.315,9.632,9.627
			v82.426c0,5.313-4.315,9.64-9.611,9.64c-0.011,0-0.036,0-0.047,0h-15.602c-3.47,0-6.482-1.859-8.184-4.609
			c-0.39,0.64-0.83,1.238-1.371,1.784c-1.815,1.822-4.235,2.825-6.819,2.825h-21.349c-1.857,0-3.632-0.542-5.166-1.523v13.67
			c0,16.063-13.065,29.124-29.123,29.124h-0.023c-16.045,0-29.103-13.07-29.103-29.124v-12.146h-15.147
			c-5.31,0-9.638-4.326-9.638-9.64v-14.215c0-1.538,0.394-2.971,1.037-4.262c-0.643-1.291-1.037-2.729-1.037-4.263l0.005-14.215
			c0-1.545,0.394-2.973,1.031-4.264c-0.638-1.291-1.037-2.729-1.037-4.262l0.005-14.211c-0.005-1.511,0.378-2.955,1.031-4.279
			c-0.638-1.285-1.031-2.719-1.031-4.251v-14.216c0-5.311,4.328-9.637,9.637-9.637h15.143v-39.843h-0.998
			c-0.685,0-1.362-0.127-1.995-0.379c-19.701-7.874-31.467-21.915-31.467-37.564V104.488c0-2.967,2.401-5.375,5.375-5.375H265.176z
			 M425.154,179.142c-1.582,2.123-4.012,3.246-6.469,3.246c-1.675,0-3.365-0.522-4.812-1.599l-40.185-29.956v184.519
			c0,4.458-3.612,8.063-8.063,8.063s-8.063-3.605-8.063-8.063v-196.55L210.318,29.017L77.267,137.761v197.582
			c0,4.458-3.612,8.062-8.063,8.062s-8.063-3.604-8.063-8.062V150.947l-36.239,29.618c-1.496,1.226-3.302,1.818-5.098,1.818
			c-2.338,0-4.654-1.013-6.247-2.963c-2.816-3.452-2.309-8.525,1.142-11.346l71.652-58.565V43.67c0-4.457,3.614-8.062,8.063-8.062
			h42.961c4.452,0,8.063,3.606,8.063,8.062v17.552l59.554-48.675c0.16-0.134,0.344-0.226,0.52-0.344
			c0.221-0.152,0.436-0.312,0.667-0.446c0.254-0.139,0.517-0.241,0.774-0.354c0.221-0.092,0.431-0.195,0.651-0.266
			c0.287-0.088,0.564-0.149,0.851-0.21c0.22-0.047,0.441-0.099,0.667-0.129c0.278-0.031,0.559-0.036,0.837-0.042
			c0.242,0,0.478-0.01,0.722,0.005c0.268,0.016,0.53,0.071,0.795,0.113c0.247,0.042,0.488,0.082,0.735,0.144
			c0.27,0.077,0.527,0.179,0.784,0.282c0.226,0.086,0.452,0.165,0.667,0.272c0.275,0.137,0.533,0.307,0.785,0.473
			c0.152,0.097,0.318,0.168,0.462,0.275l152.931,114.022c1.917,0.554,3.543,1.775,4.594,3.421l51.076,38.095
			C427.079,170.52,427.813,175.572,425.154,179.142z"/>
		<path d="M177.023,234.156h5.314c2.975,0,5.375,2.405,5.375,5.376v45.218h9.585l-7.304-8.661
			c-3.425-4.043-2.919-10.133,1.128-13.576l30.91-26.1c0.509-0.431,1.07-0.792,1.657-1.113c0.143-0.073,0.306-0.114,0.452-0.188
			c0.457-0.21,0.914-0.415,1.396-0.558c0.174-0.047,0.346-0.062,0.524-0.104c0.473-0.116,0.945-0.21,1.434-0.252
			c0.221-0.011,0.437,0,0.655,0c0.342,0,0.693-0.031,1.035,0c0.216-0.021,0.435-0.042,0.655-0.042h6.201
			c14.683-6.142,23.764-16.497,23.764-27.192v-14.507H153.264v14.507C153.259,217.654,162.333,228.009,177.023,234.156z"/>
		<polygon points="201.147,307.485 201.147,295.49 162.929,295.5 162.929,307.485 182.039,307.485 		"/>
		<polygon points="201.147,352.955 201.147,340.97 182.039,340.97 162.929,340.981 162.923,352.96 182.034,352.96 		"/>
		<polygon points="201.152,363.707 182.338,363.711 162.923,363.711 162.923,375.701 201.147,375.691 		"/>
		<path d="M210.9,289.263c-0.121,0.054-0.22,0.158-0.341,0.21c0.07,0.116,0.091,0.242,0.152,0.358
			c0.283,0.524,0.515,1.07,0.693,1.637c0.07,0.21,0.134,0.41,0.188,0.625c0.182,0.751,0.305,1.517,0.305,2.304v14.195
			c0,0.724-0.095,1.423-0.242,2.101c-0.048,0.215-0.128,0.413-0.192,0.623c-0.136,0.457-0.286,0.903-0.486,1.329
			c-0.031,0.068-0.042,0.146-0.079,0.221c0.037,0.068,0.047,0.156,0.084,0.226c0.195,0.414,0.339,0.855,0.475,1.307
			c0.063,0.221,0.145,0.421,0.197,0.642c0.147,0.671,0.242,1.364,0.242,2.088v14.216c0,0.704-0.089,1.387-0.236,2.057
			c-0.042,0.221-0.124,0.421-0.182,0.621c-0.128,0.451-0.281,0.903-0.48,1.332c-0.037,0.085-0.052,0.174-0.095,0.263
			c0.038,0.064,0.048,0.147,0.079,0.221c0.2,0.42,0.339,0.872,0.48,1.313c0.063,0.208,0.144,0.408,0.192,0.624
			c0.147,0.672,0.242,1.37,0.242,2.095v14.216c0,0.709-0.095,1.4-0.242,2.078c-0.048,0.21-0.118,0.399-0.182,0.604
			c-0.131,0.457-0.286,0.901-0.485,1.338c-0.031,0.072-0.047,0.158-0.084,0.236c0.038,0.078,0.053,0.163,0.089,0.246
			c0.189,0.41,0.329,0.829,0.457,1.26c0.071,0.231,0.157,0.441,0.21,0.673c0.147,0.672,0.242,1.363,0.242,2.083l-0.005,14.221
			c0,5.308-4.326,9.629-9.638,9.629h-14.547v12.146c0,10.137,8.232,18.373,18.353,18.373v5.376l0.016-5.376
			c10.14,0,18.38-8.24,18.38-18.373l0.007-120.4l-11.726,9.901C212.179,288.572,211.549,288.938,210.9,289.263z M213.711,398.588
			c0,4.209-3.425,7.622-7.63,7.622h-0.016c-4.187,0-7.601-3.413-7.601-7.622v-1.397h3.795c4.242,0,8.181-1.301,11.451-3.526V398.588
			z"/>
		<path d="M259.802,109.863H153.259v71.835h106.543V109.863z"/>
		<path d="M230.431,245.017c-0.604,0.088-1.275,0.078-1.906-0.021l-29.606,25.003l7.73,9.154l19.404-16.394
			c0.498-0.414,1.055-0.735,1.648-0.943c0.146-0.06,0.319-0.049,0.478-0.091c0.44-0.109,0.881-0.23,1.333-0.23
			c0.005,0,0.011,0,0.016,0c0.374,0,0.74,0.116,1.108,0.188c0.226,0.053,0.455,0.042,0.671,0.115
			c0.578,0.199,1.135,0.511,1.633,0.919l6.636,5.602c1.207,1.018,1.9,2.52,1.9,4.105l0.005,103.276l19.119-0.01V271.562
			c-0.117-0.503-0.143-0.859-0.106-1.27l-29.953-25.291C230.509,245.006,230.468,245.011,230.431,245.017z"/>
		<polygon points="201.147,330.219 201.147,318.236 182.039,318.236 162.929,318.236 162.923,330.23 182.081,330.219 		"/>
	</g>
</g>
</svg>