<?xml version="1.0" ?>
<!-- Uploaded to: SVG Repo, www.svgrepo.com, Generator: SVG Repo Mixer Tools -->
<svg width="800px" height="800px" viewBox="0 0 64 64" xmlns="http://www.w3.org/2000/svg">
<defs>
<style>.cls-1,.cls-2{fill:none;stroke:#000000;stroke-linejoin:round;stroke-width:2px;}.cls-1{stroke-linecap:round;}</style>
</defs>
<g id="support">
<circle cx="55.3829" cy="15.3776" r="1.0691"/>
<line class="cls-1" x1="12" x2="12" y1="27.1698" y2="43.4094"/>
<path class="cls-1" d="M36,17.8536V15a8,8,0,0,0-8-8H20a8,8,0,0,0-8,8v2.7551"/>
<line class="cls-1" x1="36" x2="36" y1="34.8" y2="27.1698"/>
<line class="cls-1" x1="47" x2="50" y1="20" y2="23"/>
<line class="cls-1" x1="15" x2="15" y1="41.4755" y2="59"/>
<line class="cls-1" x1="50" x2="47" y1="20" y2="23"/>
<circle class="cls-1" cx="45" cy="10" r="2"/>
<path class="cls-1" d="M20,36.77V41H17.661a7.5112,7.5112,0,0,0-7.5024,6.494L8.9865,58.6883"/>
<path class="cls-1" d="M32.8607,41.4326A7.6815,7.6815,0,0,0,30.312,41H28V36.833"/>
<path class="cls-2" d="M18,41a5,5,0,0,0,5,5h2a5,5,0,0,0,5-5"/>
<path class="cls-1" d="M14,21.0051l.6141-1.8439A6.0835,6.0835,0,0,1,20.3859,15h7.2282a6.0835,6.0835,0,0,1,5.7718,4.1612L34,21.0051"/>
<path class="cls-1" d="M33.9051,26.6679a3.5906,3.5906,0,0,1-.4744.1752l-.625,4.2183C32.2173,35.0335,26.2222,38,24,38s-8.2172-2.9665-8.8057-6.9386l-.625-4.2183a3.5838,3.5838,0,0,1-.4813-.1783"/>
<circle cx="29" cy="23" r="1"/>
<circle cx="19" cy="23" r="1"/>
<line class="cls-1" x1="19" x2="17" y1="20" y2="20"/>
<line class="cls-1" x1="31" x2="29" y1="20" y2="20"/>
<line class="cls-1" x1="22" x2="26" y1="29" y2="29"/>
<path class="cls-1" d="M57.7937,35H34.2063A1.2062,1.2062,0,0,0,33,36.2062V59H59V36.2062A1.2062,1.2062,0,0,0,57.7937,35Z"/>
<line class="cls-1" x1="41" x2="41" y1="36" y2="34"/>
<line class="cls-1" x1="51" x2="51" y1="36" y2="34"/>
<polyline class="cls-1" points="37 52 37 46 39 48 41 46 41 52"/>
<polyline class="cls-1" points="51 52 51 46 55 52 55 46"/>
<rect class="cls-1" height="6" rx="1.2508" width="4" x="44" y="46"/>
<rect class="cls-1" height="2" rx="1" width="4" x="22" y="32"/>
<line class="cls-2" x1="23" x2="12" y1="33" y2="33"/>
<path class="cls-1" d="M10.8189,18H14a0,0,0,0,1,0,0v9a0,0,0,0,1,0,0H10.8189A1.8189,1.8189,0,0,1,9,25.1811V19.8189A1.8189,1.8189,0,0,1,10.8189,18Z"/>
<path class="cls-1" d="M35.8189,18H39a0,0,0,0,1,0,0v9a0,0,0,0,1,0,0H35.8189A1.8189,1.8189,0,0,1,34,25.1811V19.8189A1.8189,1.8189,0,0,1,35.8189,18Z" transform="translate(73 45) rotate(-180)"/>
<line class="cls-2" x1="33" x2="59" y1="40" y2="40"/>
</g>
</svg>